<?xml version="1.0" encoding="UTF-8" standalone="no"?>
<svg width="117px" height="146px" viewBox="0 0 117 146" version="1.1" xmlns="http://www.w3.org/2000/svg" xmlns:xlink="http://www.w3.org/1999/xlink">
    <!-- Generator: Sketch 3.7 (28169) - http://www.bohemiancoding.com/sketch -->
    <title>Group</title>
    <desc>Created with Sketch.</desc>
    <defs>
        <linearGradient x1="3.99274158%" y1="80.7884612%" x2="86.9651711%" y2="15.47344%" id="linearGradient-1">
            <stop stop-color="#654242" offset="0%"></stop>
            <stop stop-color="#877979" offset="100%"></stop>
        </linearGradient>
    </defs>
    <g id="Page-1" stroke="none" stroke-width="1" fill="none" fill-rule="evenodd">
        <g id="noun_191660_cc">
            <g id="Group">
                <path d="M111.7,1.9 C107.3,-0.6 101.7,0.6 98.8,4.7 L47.3,76.5 L82.5,96.6 L115.9,14.2 C117.8,9.6 115.9,4.4 111.7,1.9 L111.7,1.9 Z" id="Shape" fill="#030000"></path>
                <path d="M64.1,107.8 C74.3,105 80.5,100 80.5,100 L45.3,79.9 C42.9,87.5 47.5,98.3 47.5,98.3 L64.1,107.8 Z" id="Shape" fill="#9B9B9B"></path>
                <path d="M1.9,134.6 C1.5,134.4 1.1,134.2 0.7,134 C0.7,134 1.1,134.3 1.9,134.6 L1.9,134.6 Z" id="Shape" fill="#030000"></path>
                <path d="M44.8,100.9 C34.2,100.9 29.5,107.7 24.3,118.3 C14.8,137.7 5.2,136 2,134.6 C17.8,142.9 31.2,135.7 31.2,135.7 C27,141.1 14,141.6 14,141.6 C22.6,146.1 30.2,145.6 30.2,145.6 C47.8,145.9 58.7,137.9 63.1,128.9 C67.5,119.8 63.1,111.3 63.1,111.3 L44.8,100.9 L44.8,100.9 Z" id="Shape" fill="url(#linearGradient-1)"></path>
            </g>
        </g>
    </g>
</svg>