<?xml version="1.0" encoding="UTF-8" standalone="no"?>
<svg width="98px" height="82px" viewBox="0 0 98 82" version="1.1" xmlns="http://www.w3.org/2000/svg" xmlns:xlink="http://www.w3.org/1999/xlink">
    <!-- Generator: Sketch 3.7 (28169) - http://www.bohemiancoding.com/sketch -->
    <title>Shape</title>
    <desc>Created with Sketch.</desc>
    <defs></defs>
    <g id="Page-1" stroke="none" stroke-width="1" fill="none" fill-rule="evenodd">
        <g id="noun_14158_cc" transform="translate(-1.000000, 0.000000)" fill="#000000">
            <path d="M55.49,41.002 L76.816,62.328 L98.145,41.002 L89.313,32.166 L82.945,38.537 C81.657,17.293 64.02,0.395 42.459,0.395 C20.069,0.395 1.855,18.612 1.855,41.002 C1.855,63.391 20.07,81.606 42.459,81.606 L58.075,81.606 L58.075,69.111 L42.459,69.111 C26.955,69.111 14.349,56.502 14.349,41.002 C14.349,25.497 26.955,12.888 42.459,12.888 C56.98,12.888 68.815,23.985 70.279,38.121 L64.323,32.166 L55.49,41.002 L55.49,41.002 Z" id="Shape"></path>
        </g>
    </g>
</svg>