<?xml version="1.0" encoding="UTF-8" standalone="no"?>
<svg width="8px" height="7px" viewBox="0 0 8 7" version="1.1" xmlns="http://www.w3.org/2000/svg" xmlns:xlink="http://www.w3.org/1999/xlink">
    <!-- Generator: Sketch 3.7 (28169) - http://www.bohemiancoding.com/sketch -->
    <title>Shape</title>
    <desc>Created with Sketch.</desc>
    <defs></defs>
    <g id="Page-1" stroke="none" stroke-width="1" fill="none" fill-rule="evenodd">
        <g id="heart" fill="#E71D46">
            <g id="Shape">
                <g id="Page-1">
                    <g id="heart">
                        <path d="M0.59,0.59 C0.23,0.95 1.11022302e-16,1.44 1.11022302e-16,2 C1.11022302e-16,2.55 0.23,3.04 0.59,3.41 L4,6.82 L7.41,3.41 C7.77,3.05 8,2.56 8,2 C8,1.45 7.77,0.96 7.41,0.59 C7.05,0.23 6.56,1.11022302e-16 6,1.11022302e-16 C5.45,1.11022302e-16 4.96,0.23 4.59,0.59 C4.23,0.95 4,1.44 4,2 C4,1.45 3.77,0.96 3.41,0.59 C3.05,0.23 2.56,1.11022302e-16 2,1.11022302e-16 C1.45,0 0.96,0.23 0.59,0.59 L0.59,0.59 Z" id="Shape"></path>
                    </g>
                </g>
            </g>
        </g>
    </g>
</svg>