<?xml version="1.0" encoding="UTF-8" standalone="no"?>
<svg width="636px" height="752px" viewBox="0 0 636 752" version="1.1" xmlns="http://www.w3.org/2000/svg" xmlns:xlink="http://www.w3.org/1999/xlink">
    <!-- Generator: Sketch 3.7 (28169) - http://www.bohemiancoding.com/sketch -->
    <title>unicorne</title>
    <desc>Created with Sketch.</desc>
    <defs>
        <radialGradient cx="11.9316208%" cy="64.7385328%" fx="11.9316208%" fy="64.7385328%" r="222.679052%" id="radialGradient-1">
            <stop stop-color="#EDA9A9" offset="0%"></stop>
            <stop stop-color="#7B1A1A" offset="100%"></stop>
        </radialGradient>
    </defs>
    <g id="Page-1" stroke="none" stroke-width="1" fill="none" fill-rule="evenodd">
        <g id="unicorne">
            <g id="Page-1">
                <g id="Artboard-1">
                    <g id="noun_51817_cc">
                        <path d="M107.030976,0.14677115 L172.133905,162.615804 C187.290643,148.824001 205.603405,137.885674 224.667,130.634665 L107.030976,0.14677115 Z" id="Shape" fill="#EBBD6C"></path>
                        <path d="M161.499833,215.57416 C158.252952,223.718299 157.167714,232.66222 158.27819,242.249498 C163.811643,236.408827 170.647381,230.44327 179.018857,224.418423 C200.244095,209.140592 230.958857,207.822341 263.485714,206.437232 C288.675857,205.361186 317.220143,204.133762 328.613881,195.173442 C328.613881,195.173442 328.64669,194.189485 398.499429,139.912879 C386.672857,139.804391 374.879095,140.254741 363.402071,139.912879 C351.984357,139.571017 289.793905,138.327193 253.594905,145.845637 C212.33819,154.414898 174.462119,183.092211 161.499833,215.57416 L161.499833,215.57416 L161.499833,215.57416 Z" id="Shape" fill="url(#radialGradient-1)"></path>
                        <path d="M628.996429,461.239317 C604.215143,395.807409 566.789571,313.529645 515.893167,247.173069 L515.884333,296.283899 L560.078762,399.120066 C580.878738,443.232896 602.337429,488.773726 619.948571,536.582704 C635.707238,519.436614 641.265929,493.645576 628.996429,461.239317 L628.996429,461.239317 L628.996429,461.239317 Z" id="Shape" fill="url(#radialGradient-1)"></path>
                        <path d="M522.019714,416.258586 L474.151881,304.869558 L474.151881,136.827289 C474.177119,130.49464 469.928286,127.3321 468.108619,126.263623 C466.355833,125.229206 461.806667,123.2348 456.557143,125.871302 L364.862095,196.417265 C357.375214,201.815155 350.00569,207.380822 342.735857,213.096605 C309.40769,239.337993 224.725048,219.638661 192.35719,242.942052 C174.053262,256.11699 152.218524,276.709453 163.695548,301.432015 C158.07881,294.439609 152.176881,286.405218 147.278167,278.036534 C129.699833,305.645371 124.734238,329.058512 121.42931,342.825085 C41.6037381,348.857501 0.179190476,406.680138 0.179190476,464.801747 C0.179190476,530.90098 52.4952381,580.754823 121.87981,580.754823 L287.224667,580.754823 L317.830905,654.971705 C338.781048,713.570155 390.037095,751.082901 448.621024,751.091732 C464.654786,751.091732 480.722619,748.254654 496.389167,742.656189 C571.163333,715.956882 610.276071,633.402854 583.566595,558.652364 C566.031167,509.566765 543.65381,462.132447 522.019714,416.258586 Z M235.97619,370.867872 C223.364714,370.867872 213.140762,360.64733 213.140762,348.038798 C213.140762,335.431528 223.364714,325.210986 235.97619,325.210986 C248.587667,325.210986 258.812881,335.431528 258.812881,348.038798 C258.811619,360.64733 248.587667,370.867872 235.97619,370.867872 L235.97619,370.867872 L235.97619,370.867872 Z" id="Shape" fill="#F9C3DB"></path>
                    </g>
                </g>
            </g>
        </g>
    </g>
</svg>